HIERARCHY
ROOT Hips
{
	OFFSET -3.958830 18.904000 13.208200
	CHANNELS 6 Xposition Yposition Zposition Zrotation Yrotation Xrotation 
	JOINT LHipJoint
	{
		OFFSET 0.000000 0.000000 0.000000
		CHANNELS 3 Zrotation Yrotation Xrotation
		JOINT LeftUpLeg
		{
			OFFSET 1.800000 -1.400000 0.085000
			CHANNELS 3 Zrotation Yrotation Xrotation
			JOINT LeftLeg
			{
				OFFSET 2.215000 -6.000000 0.000000
				CHANNELS 3 Zrotation Yrotation Xrotation
				JOINT LeftFoot
				{
					OFFSET 2.500000 -6.900000 0.000000
					CHANNELS 3 Zrotation Yrotation Xrotation
					JOINT LeftToeBase
					{
						OFFSET 0.200000 -0.500000 1.950000
						CHANNELS 3 Zrotation Yrotation Xrotation
						End Site
						{
							OFFSET 0.000000 0.000000 0.000000
						}
					}
				}
			}
		}
	}
	JOINT RHipJoint
	{
		OFFSET 0.000000 0.000000 0.000000
		CHANNELS 3 Zrotation Yrotation Xrotation
		JOINT RightUpLeg
		{
			OFFSET -1.800000 -1.400000 0.085000
			CHANNELS 3 Zrotation Yrotation Xrotation
			JOINT RightLeg
			{
				OFFSET -2.215000 -6.000000 0.000000
				CHANNELS 3 Zrotation Yrotation Xrotation
				JOINT RightFoot
				{
					OFFSET -2.500000 -6.900000 0.000000
					CHANNELS 3 Zrotation Yrotation Xrotation
					JOINT RightToeBase
					{
						OFFSET -0.200000 -0.500000 1.950000
						CHANNELS 3 Zrotation Yrotation Xrotation
						End Site
						{
							OFFSET 0.000000 0.000000 0.000000
						}
					}
				}
			}
		}
	}
	JOINT LowerBack
	{
		OFFSET 0.000000 0.000000 0.000000
		CHANNELS 3 Zrotation Yrotation Xrotation
		JOINT Spine
		{
			OFFSET -0.087000 1.940000 -0.288900
			CHANNELS 3 Zrotation Yrotation Xrotation
			JOINT Spine1
			{
				OFFSET 0.000000 1.950000 0.060000
				CHANNELS 3 Zrotation Yrotation Xrotation
				JOINT Neck
				{
					OFFSET 0.000000 0.000000 0.000000
					CHANNELS 3 Zrotation Yrotation Xrotation
					JOINT Neck1
					{
						OFFSET 0.000000 1.600000 0.340000
						CHANNELS 3 Zrotation Yrotation Xrotation
						JOINT Head
						{
							OFFSET 0.000000 1.667000 -0.240000
							CHANNELS 3 Zrotation Yrotation Xrotation
							End Site
							{
								OFFSET 0.000000 0.000000 0.000000
							}
						}
					}
				}
				JOINT LeftShoulder
				{
					OFFSET 0.000000 0.000000 0.000000
					CHANNELS 3 Zrotation Yrotation Xrotation
					JOINT LeftArm
					{
						OFFSET 2.700000 1.550000 -0.730000
						CHANNELS 3 Zrotation Yrotation Xrotation
						JOINT LeftForeArm
						{
							OFFSET 5.450000 0.000000 0.000000
							CHANNELS 3 Zrotation Yrotation Xrotation
							JOINT LeftHand
							{
								OFFSET 3.450000 0.000000 0.000000
								CHANNELS 3 Zrotation Yrotation Xrotation
								JOINT LeftHandIndex1
								{
									OFFSET 0.750000 0.000000 0.000000
									CHANNELS 3 Zrotation Yrotation Xrotation
									End Site
									{
										OFFSET 0.000000 0.000000 0.000000
									}
								}
							}
						}
					}
				}
				JOINT RightShoulder
				{
					OFFSET 0.000000 0.000000 0.000000
					CHANNELS 3 Zrotation Yrotation Xrotation
					JOINT RightArm
					{
						OFFSET -2.700000 1.550000 -0.730000
						CHANNELS 3 Zrotation Yrotation Xrotation
						JOINT RightForeArm
						{
							OFFSET -5.450000 0.000000 0.000000
							CHANNELS 3 Zrotation Yrotation Xrotation
							JOINT RightHand
							{
								OFFSET -3.450000 0.000000 0.000000
								CHANNELS 3 Zrotation Yrotation Xrotation
								JOINT RightHandIndex1
								{
									OFFSET -0.750000 0.000000 0.000000
									CHANNELS 3 Zrotation Yrotation Xrotation
									End Site
									{
										OFFSET 0.000000 0.000000 0.000000
									}
								}
							}
						}
					}
				}
			}
		}
	}
}
MOTION
Frames: 12
Frame Time: 0.016667
-2.062700 17.878190 4.068640 -7.795525 3.519196 -12.900560 -15.308087 13.588299 3.000403 10.882531 -5.586254 -19.088218 -2.169675 9.356901 42.643685 -0.241442 8.481918 1.663796 -0.399650 -0.595520 -0.622630 18.165780 -9.453159 3.954838 -6.660159 5.212254 -43.133134 5.621943 -6.576397 26.906543 0.010818 -3.582045 3.056580 -0.215490 1.072230 0.295160 -3.249203 -3.709537 -8.348371 5.311637 -6.166721 22.671794 -4.199049 -4.466095 6.926770 1.931549 -0.703325 -11.019521 -4.412258 5.348837 38.192359 1.388180 1.840690 -3.618350 -23.305540 -20.942836 5.272128 -40.612770 -17.576531 -4.650851 -5.358435 -37.024512 -1.503487 -4.096664 2.806556 0.566420 0.478850 -0.285410 0.214710 19.651583 19.225663 8.073963 53.322320 8.034160 -12.365713 21.883738 42.328987 3.045119 1.854354 -1.096597 -0.584320 0.633180 0.699570 0.062520 
-2.045110 17.905390 4.022820 -8.681411 3.157992 -13.798438 -15.276202 13.588893 2.917665 11.921926 -5.439513 -18.241620 -2.526288 9.411166 41.863332 -0.328367 8.481388 1.658284 -0.387540 -0.602120 -0.584140 18.201989 -9.370460 4.078844 -6.667001 5.542483 -44.129256 6.269803 -6.877258 27.463245 -0.029397 -3.685626 2.996655 -0.195750 1.071680 0.303590 -3.337491 -3.732403 -8.387555 6.663228 -6.755145 23.812061 -4.501405 -4.704858 8.814807 2.077989 -0.649457 -11.872797 -4.483044 5.470362 38.902439 0.792460 2.183290 -4.964200 -23.164385 -23.957844 6.182702 -38.323743 -18.820360 -5.651545 -3.309852 -39.072088 -2.372257 -4.068997 2.776355 0.619500 0.474470 -0.265850 0.202660 19.105532 22.012664 8.811589 51.340847 9.279372 -12.928479 21.640898 44.567309 3.094484 1.795043 -1.077759 -0.619070 0.674990 0.717720 0.032530 
-2.011800 17.946970 3.960470 -10.272945 2.133680 -14.725877 -15.199141 13.442155 2.744958 13.930759 -5.040781 -17.046595 -3.545872 9.812485 40.433839 -0.415249 8.485727 1.634928 -0.338710 -0.553910 -0.537830 18.326918 -9.143752 4.391238 -6.651863 6.568832 -47.138454 6.899620 -7.438313 29.593716 -0.109984 -4.017897 2.841801 -0.143620 1.060760 0.313720 -3.604993 -3.621043 -8.427442 9.863493 -8.128533 25.047995 -5.359151 -5.359410 11.416439 2.136184 -1.370049 -12.797364 -5.921328 6.241179 38.881808 0.571140 2.450070 -6.735290 -21.863616 -27.216355 7.191476 -35.739159 -20.909884 -7.243362 -0.572438 -43.492949 -3.817357 -4.005660 2.790764 0.650940 0.464120 -0.245440 0.196920 17.558205 25.231552 9.414131 47.681304 11.537500 -13.353823 22.454258 48.806656 3.863732 1.724852 -1.104731 -0.631920 0.707380 0.719240 0.015450 
-1.976340 18.008040 3.898750 -11.860009 1.126550 -15.732126 -15.128451 13.271302 2.510387 15.711715 -4.554939 -15.506716 -4.028967 9.935619 38.845859 -0.478528 8.365507 1.640778 -0.255570 -0.449710 -0.497790 18.459185 -8.894945 4.770576 -7.113171 7.647299 -50.872028 7.464942 -8.327507 32.915651 -0.236893 -4.609497 2.602873 -0.082550 1.021800 0.341410 -3.875662 -3.461504 -8.447115 13.357394 -9.590310 26.447333 -5.976888 -6.037171 13.627909 2.091975 -2.285767 -13.474623 -7.789220 6.866214 38.633011 0.161800 2.477280 -8.412660 -20.040027 -29.864950 7.786460 -32.412781 -23.399052 -8.870577 1.733441 -48.947363 -5.343338 -3.920250 2.866907 0.649470 0.450490 -0.216780 0.202860 15.793127 27.808135 9.791225 42.824628 13.179139 -13.935999 25.155967 54.467214 5.847837 1.647951 -1.195934 -0.590790 0.693670 0.698770 0.016360 
-1.933920 18.091680 3.840370 -13.275591 0.244270 -16.604644 -15.061948 13.084247 2.230896 16.977137 -4.049781 -13.754766 -4.050041 9.724895 36.835677 -0.567432 8.127485 1.694636 -0.204390 -0.391790 -0.463850 18.591488 -8.661646 5.185950 -8.856421 8.394534 -54.757020 9.290153 -10.087351 37.079280 -0.426667 -5.575927 2.222751 -0.042400 0.985640 0.372790 -4.144552 -3.234495 -8.460824 16.977843 -11.178026 27.816082 -6.897929 -6.704818 15.200399 2.160415 -3.080977 -14.012129 -9.486465 7.392035 38.468685 -0.263470 2.404940 -10.084040 -18.235005 -32.147999 8.098197 -28.660943 -25.430127 -10.353489 4.418507 -53.502508 -7.137279 -3.855340 2.908345 0.665660 0.431510 -0.183280 0.193870 13.860278 29.852869 10.008516 38.306415 14.363645 -14.781325 27.221092 60.496964 8.040183 1.568832 -1.271499 -0.566420 0.682950 0.698540 0.011460 
-1.886190 18.182840 3.799620 -14.862325 -0.447942 -16.757302 -15.003520 12.785513 1.860287 17.966455 -3.404300 -12.365240 -3.487556 9.224010 34.418296 -0.620452 7.695600 1.842311 -0.141130 -0.294200 -0.446220 18.755229 -8.367450 5.719623 -11.950123 9.026353 -59.563341 12.778188 -13.385188 42.862684 -0.744473 -7.206781 1.676635 0.002840 0.957390 0.387660 -4.457359 -2.862428 -8.468423 21.439587 -12.936942 27.943545 -8.231769 -7.439292 16.078925 2.432999 -3.867119 -13.827745 -10.856038 7.745217 37.617973 -1.133300 2.400090 -10.484550 -15.753267 -32.933778 7.856254 -26.379104 -26.766917 -10.936771 8.076975 -58.696167 -9.675510 -3.834331 2.928554 0.619030 0.433980 -0.170590 0.217080 10.893233 30.393290 9.702544 34.938075 15.824066 -14.924652 28.733121 66.709214 10.396404 1.511708 -1.391439 -0.513710 0.655780 0.656980 0.032520 
-1.846320 18.287250 3.767710 -16.140375 -0.559111 -16.660376 -14.968171 12.461458 1.448274 18.340534 -2.770603 -11.140910 -2.390080 8.446017 31.810056 -0.721838 7.212453 2.040317 -0.115600 -0.264820 -0.437420 18.911869 -8.054704 6.296948 -16.772419 8.783247 -64.297790 18.179386 -18.525497 48.877116 -1.207872 -9.345709 1.010116 0.029830 0.971070 0.402970 -4.731920 -2.477914 -8.504797 25.568442 -14.451425 27.445379 -9.664147 -8.055754 16.550405 2.770281 -4.349974 -13.158200 -11.418686 7.600440 36.669062 -2.146300 2.091910 -10.657390 -12.995763 -32.700660 7.280159 -24.952673 -27.469950 -10.634065 11.610124 -64.041974 -12.514425 -3.870953 2.873561 0.601820 0.454970 -0.177390 0.236410 7.568409 29.894829 9.105768 33.095406 17.444415 -15.238061 24.396316 73.403711 9.293168 1.419518 -1.453029 -0.510570 0.660150 0.643140 0.039640 
-1.814650 18.400420 3.749680 -17.240101 -0.640192 -15.647368 -14.928832 12.041657 1.067358 18.506839 -2.190025 -10.487431 -1.668607 7.740006 28.751875 -0.808518 6.718544 2.256354 -0.130410 -0.278350 -0.478920 19.086948 -7.755882 6.857651 -21.802976 7.973879 -68.839846 24.461541 -24.749146 53.611399 -1.704683 -11.453715 0.429916 0.041320 1.037020 0.420200 -5.046656 -1.964124 -8.530482 30.229317 -15.641004 25.333585 -11.530792 -8.367090 16.719405 2.932633 -4.992583 -12.297130 -12.181986 7.522689 35.304168 -2.469160 1.476940 -9.327640 -10.199991 -31.303319 6.687090 -25.029243 -28.149364 -9.416524 16.389005 -68.652676 -16.356849 -3.958274 2.790481 0.540870 0.513060 -0.228860 0.258110 4.537871 28.439059 8.271632 32.587348 18.996316 -15.067541 14.336640 78.362755 3.229608 1.324762 -1.443790 -0.513790 0.663900 0.655370 0.065520 
-1.790970 18.535690 3.736530 -18.285885 -0.475489 -14.693759 -14.890705 11.672287 0.759188 18.632419 -1.705148 -9.942724 -0.930550 7.017087 25.639135 -0.887024 6.262488 2.462042 -0.187330 -0.335550 -0.550020 19.230608 -7.569299 7.288598 -26.323849 6.607944 -71.768546 31.031507 -31.568850 56.810190 -2.166613 -13.226469 0.003735 0.029280 1.124910 0.436240 -5.311247 -1.438909 -8.544170 34.927056 -16.795680 23.069640 -13.923098 -8.541382 16.922306 3.292704 -5.670545 -11.764537 -13.048107 7.558284 34.002628 -2.867110 0.920310 -7.679610 -8.017110 -29.960445 6.482901 -24.665532 -27.479159 -8.808197 22.099038 -73.624472 -21.690177 -4.058034 2.681365 0.475100 0.585420 -0.295330 0.263060 1.722217 27.293439 7.499006 32.363970 20.287905 -15.170046 -0.168118 81.883926 -7.601230 1.210801 -1.299560 -0.527790 0.675650 0.700680 0.092850 
-1.780420 18.670020 3.712850 -19.097425 -0.232612 -13.146669 -14.872774 11.346162 0.583344 18.653539 -1.398012 -10.672791 -0.574260 6.483375 23.054802 -0.907376 5.821818 2.656606 -0.223660 -0.351980 -0.626780 19.329355 -7.408597 7.612970 -29.809594 5.254106 -73.926194 37.296241 -38.272074 58.629754 -2.536629 -14.484570 -0.222350 0.021750 1.191050 0.416440 -5.482814 -1.053248 -8.591778 39.097032 -17.297308 20.799801 -15.824911 -8.197783 16.142183 3.489618 -6.394733 -11.216929 -14.127522 7.239663 32.909013 -2.722720 -0.015400 -5.516980 -6.708283 -27.662360 6.012410 -25.320587 -27.553142 -7.222427 26.098574 -77.819402 -25.964811 -4.103501 2.609264 0.386020 0.637800 -0.365920 0.290690 0.005506 25.584128 6.760894 31.733208 20.427115 -14.759148 -14.022449 85.141853 -18.936091 1.130591 -1.099208 -0.522630 0.674770 0.702700 0.135010 
-1.776220 18.822270 3.671460 -19.467711 0.734478 -12.368150 -14.861919 11.173765 0.528760 18.335728 -1.279855 -11.998547 -0.342800 6.146628 21.825872 -0.950122 5.579533 2.781013 -0.301440 -0.430300 -0.710060 19.372650 -7.359113 7.727479 -31.832572 4.024005 -73.771453 42.031587 -43.563278 59.425504 -2.748557 -15.128303 -0.294628 -0.008090 1.272870 0.373670 -5.549089 -0.885716 -8.633006 41.792281 -17.801870 19.810109 -17.090515 -8.042203 15.186080 3.631848 -7.005199 -10.914441 -15.239225 7.064214 32.506773 -2.381120 -0.953430 -4.132570 -6.409975 -26.120648 5.753669 -25.141093 -27.047158 -6.280386 28.355435 -81.324448 -29.163859 -4.154161 2.506955 0.359200 0.675780 -0.431950 0.298530 -0.601985 24.574462 6.171064 30.346765 19.638560 -15.234956 -29.162996 87.545950 -32.006220 1.031599 -0.633662 -0.571280 0.728600 0.742430 0.154980 
-1.796950 18.986200 3.603250 -19.085649 1.440403 -12.305434 -14.841184 11.125369 0.588602 17.748076 -1.201577 -13.503637 -0.599550 6.129875 21.784362 -0.967116 5.483328 2.816264 -0.306110 -0.464050 -0.696850 19.372780 -7.431259 7.664451 -31.842138 4.557727 -71.854369 42.905404 -47.197094 62.356719 -2.973211 -15.739897 -0.403864 -0.033240 1.261130 0.359090 -5.571526 -0.808319 -8.669929 42.384623 -17.851304 20.724962 -17.455734 -7.819069 14.371579 3.665233 -7.428275 -10.744141 -16.210377 6.684458 32.908153 -1.781820 -2.009500 -4.595300 -6.361970 -25.454233 5.670715 -24.416991 -26.244233 -6.328837 33.291918 -83.841653 -34.528122 -4.128218 2.366759 0.397460 0.640530 -0.423640 0.294130 -0.695666 24.430031 5.687502 29.417938 18.487419 -17.179467 -50.971432 89.428220 -50.994550 0.887317 0.667103 -0.582860 0.743500 0.744250 0.146250 
